<svg width="59" height="56" viewBox="0 0 59 56" fill="none" xmlns="http://www.w3.org/2000/svg">
<g filter="url(#filter0_d_964_13123)">
<g clip-path="url(#clip0_964_13123)">
<path d="M31.6609 43.3295H27.3393C27.1468 43.3295 26.9621 43.2538 26.8259 43.1191C26.6898 42.9843 26.6133 42.8015 26.6133 42.6109V7.90171C26.6133 7.14392 26.9174 6.41716 27.4588 5.88131C28.0002 5.34547 28.7345 5.04443 29.5001 5.04443C30.2657 5.04443 31 5.34547 31.5414 5.88131C32.0828 6.41716 32.3869 7.14392 32.3869 7.90171V42.6116C32.3867 42.8021 32.3101 42.9847 32.174 43.1193C32.0379 43.2539 31.8533 43.3295 31.6609 43.3295ZM28.0654 41.8923H30.9348V7.90171C30.9348 7.5251 30.7836 7.16392 30.5146 6.89761C30.2455 6.63131 29.8806 6.4817 29.5001 6.4817C29.1196 6.4817 28.7547 6.63131 28.4856 6.89761C28.2166 7.16392 28.0654 7.5251 28.0654 7.90171V41.8923Z" fill="#295C7A"/>
<path d="M12.0021 14.6787H9.50957C8.91819 14.6682 8.35462 14.4283 7.94015 14.0107C7.52568 13.593 7.29346 13.031 7.29346 12.4456C7.29346 11.8601 7.52568 11.2981 7.94015 10.8805C8.35462 10.4628 8.91819 10.2229 9.50957 10.2124H11.6485C11.8411 10.2124 12.0258 10.2881 12.1619 10.4229C12.2981 10.5577 12.3746 10.7404 12.3746 10.931C12.3746 11.1216 12.2981 11.3044 12.1619 11.4392C12.0258 11.574 11.8411 11.6497 11.6485 11.6497H9.50957C9.30049 11.6559 9.10208 11.7425 8.95641 11.891C8.81074 12.0396 8.72927 12.2385 8.72927 12.4456C8.72927 12.6526 8.81074 12.8515 8.95641 13.0001C9.10208 13.1486 9.30049 13.2352 9.50957 13.2414H12.0021C12.1947 13.2414 12.3794 13.3171 12.5155 13.4519C12.6517 13.5867 12.7282 13.7695 12.7282 13.9601C12.7282 14.1507 12.6517 14.3334 12.5155 14.4682C12.3794 14.603 12.1947 14.6787 12.0021 14.6787Z" fill="#295C7A"/>
<path d="M27.3394 14.6787H16.394C16.2015 14.6787 16.0168 14.603 15.8806 14.4682C15.7445 14.3334 15.668 14.1507 15.668 13.9601C15.668 13.7695 15.7445 13.5867 15.8806 13.4519C16.0168 13.3171 16.2015 13.2414 16.394 13.2414H26.6133V11.6497H16.7469C16.5543 11.6497 16.3697 11.574 16.2335 11.4392C16.0973 11.3044 16.0208 11.1216 16.0208 10.931C16.0208 10.7404 16.0973 10.5577 16.2335 10.4229C16.3697 10.2881 16.5543 10.2124 16.7469 10.2124H27.3394C27.5319 10.2124 27.7166 10.2881 27.8528 10.4229C27.9889 10.5577 28.0654 10.7404 28.0654 10.931V13.9601C28.0654 14.1507 27.9889 14.3334 27.8528 14.4682C27.7166 14.603 27.5319 14.6787 27.3394 14.6787Z" fill="#295C7A"/>
<path d="M42.4477 14.6787H31.6606C31.4681 14.6787 31.2834 14.603 31.1472 14.4682C31.0111 14.3334 30.9346 14.1507 30.9346 13.9601V10.931C30.9346 10.7404 31.0111 10.5577 31.1472 10.4229C31.2834 10.2881 31.4681 10.2124 31.6606 10.2124H42.0948C42.2874 10.2124 42.4721 10.2881 42.6082 10.4229C42.7444 10.5577 42.8209 10.7404 42.8209 10.931C42.8209 11.1216 42.7444 11.3044 42.6082 11.4392C42.4721 11.574 42.2874 11.6497 42.0948 11.6497H32.3867V13.2414H42.4477C42.6403 13.2414 42.8249 13.3171 42.9611 13.4519C43.0973 13.5867 43.1738 13.7695 43.1738 13.9601C43.1738 14.1507 43.0973 14.3334 42.9611 14.4682C42.8249 14.603 42.6403 14.6787 42.4477 14.6787Z" fill="#295C7A"/>
<path d="M49.4833 14.6787H46.998C46.8055 14.6787 46.6208 14.603 46.4846 14.4682C46.3485 14.3334 46.272 14.1507 46.272 13.9601C46.272 13.7695 46.3485 13.5867 46.4846 13.4519C46.6208 13.3171 46.8055 13.2414 46.998 13.2414H49.4833C49.6924 13.2352 49.8908 13.1486 50.0365 13.0001C50.1822 12.8515 50.2636 12.6526 50.2636 12.4456C50.2636 12.2385 50.1822 12.0396 50.0365 11.891C49.8908 11.7425 49.6924 11.6559 49.4833 11.6497H47.356C47.1634 11.6497 46.9787 11.574 46.8426 11.4392C46.7064 11.3044 46.6299 11.1216 46.6299 10.931C46.6299 10.7404 46.7064 10.5577 46.8426 10.4229C46.9787 10.2881 47.1634 10.2124 47.356 10.2124H49.4833C50.0747 10.2229 50.6383 10.4628 51.0528 10.8805C51.4672 11.2981 51.6995 11.8601 51.6995 12.4456C51.6995 13.031 51.4672 13.593 51.0528 14.0107C50.6383 14.4283 50.0747 14.6682 49.4833 14.6787Z" fill="#295C7A"/>
<path d="M38.6954 47.9546H20.3043C20.1941 47.9546 20.0853 47.9297 19.9863 47.8818C19.8872 47.834 19.8005 47.7645 19.7326 47.6785C19.6648 47.5926 19.6175 47.4925 19.5946 47.3858C19.5716 47.2791 19.5735 47.1687 19.6 47.0628C19.8994 45.6416 20.6703 44.3603 21.7902 43.4227C22.9101 42.4852 24.3146 41.9452 25.7802 41.8887H33.2194C34.6851 41.9452 36.0896 42.4852 37.2095 43.4227C38.3293 44.3603 39.1003 45.6416 39.3997 47.0628C39.4262 47.1687 39.4281 47.2791 39.4051 47.3858C39.3821 47.4925 39.3349 47.5926 39.267 47.6785C39.1992 47.7645 39.1124 47.834 39.0134 47.8818C38.9143 47.9297 38.8056 47.9546 38.6954 47.9546ZM21.3084 46.5174H37.6912C37.3456 45.6094 36.7369 44.8225 35.9415 44.2554C35.146 43.6883 34.1991 43.3663 33.2194 43.3295H25.7802C24.8006 43.3663 23.8537 43.6883 23.0582 44.2554C22.2627 44.8225 21.654 45.6094 21.3084 46.5174Z" fill="#295C7A"/>
<path d="M40.6618 47.9548H18.3384C18.1458 47.9548 17.9611 47.8791 17.825 47.7444C17.6888 47.6096 17.6123 47.4268 17.6123 47.2362C17.6123 47.0456 17.6888 46.8628 17.825 46.7281C17.9611 46.5933 18.1458 46.5176 18.3384 46.5176H40.6618C40.8543 46.5176 41.039 46.5933 41.1752 46.7281C41.3113 46.8628 41.3878 47.0456 41.3878 47.2362C41.3878 47.4268 41.3113 47.6096 41.1752 47.7444C41.039 47.8791 40.8543 47.9548 40.6618 47.9548Z" fill="#295C7A"/>
<path d="M54.186 32.6973H35.4238C35.3023 32.6974 35.1827 32.6673 35.076 32.6098C34.9692 32.5522 34.8788 32.469 34.813 32.3679C34.7471 32.2668 34.708 32.1509 34.6992 32.0309C34.6904 31.911 34.7121 31.7907 34.7624 31.6812L42.7345 14.309C42.7738 14.2228 42.8299 14.1452 42.8995 14.0805C42.9691 14.0157 43.051 13.9653 43.1404 13.9319C43.2297 13.8986 43.3249 13.883 43.4203 13.8861C43.5158 13.8892 43.6097 13.911 43.6967 13.9501C43.7836 13.9891 43.862 14.0448 43.9271 14.1139C43.9923 14.183 44.0431 14.2642 44.0765 14.3527C44.11 14.4413 44.1254 14.5355 44.122 14.63C44.1186 14.7245 44.0964 14.8174 44.0567 14.9033L36.5507 31.2601H53.0562L45.5567 14.9033C45.5174 14.8173 45.4955 14.7245 45.4923 14.6302C45.4892 14.5359 45.5049 14.4418 45.5384 14.3535C45.572 14.2651 45.6228 14.1842 45.688 14.1153C45.7532 14.0464 45.8315 13.9908 45.9183 13.9519C46.0052 13.9129 46.0989 13.8912 46.1943 13.8881C46.2896 13.885 46.3846 13.9005 46.4739 13.9337C46.5631 13.967 46.6449 14.0173 46.7145 14.0818C46.7841 14.1463 46.8402 14.2238 46.8796 14.3097L54.8438 31.6819C54.8938 31.7911 54.9154 31.911 54.9067 32.0306C54.898 32.1501 54.8591 32.2657 54.7937 32.3666C54.7283 32.4675 54.6385 32.5507 54.5323 32.6085C54.4262 32.6662 54.3071 32.6968 54.186 32.6973Z" fill="#295C7A"/>
<path d="M44.8793 41.8635H44.7282C38.9147 41.8635 34.6948 37.7069 34.6948 31.9794C34.6948 31.7888 34.7713 31.606 34.9075 31.4712C35.0436 31.3365 35.2283 31.2607 35.4209 31.2607H54.1859C54.3784 31.2607 54.5631 31.3365 54.6993 31.4712C54.8354 31.606 54.9119 31.7888 54.9119 31.9794C54.9119 37.7105 50.6921 41.8635 44.8793 41.8635ZM36.1724 32.698C36.4962 37.2843 39.9224 40.4262 44.7282 40.4262H44.8793C49.6843 40.4262 53.1113 37.2843 53.4344 32.698H36.1724Z" fill="#295C7A"/>
<path d="M44.8039 15.7033C44.0979 15.7034 43.4077 15.4963 42.8206 15.1082C42.2336 14.7201 41.776 14.1683 41.5057 13.5228C41.2355 12.8772 41.1647 12.1668 41.3024 11.4815C41.4401 10.7961 41.7801 10.1665 42.2793 9.67243C42.7785 9.17831 43.4146 8.84183 44.107 8.70554C44.7995 8.56925 45.5172 8.63927 46.1694 8.90675C46.8217 9.17423 47.3791 9.62715 47.7712 10.2082C48.1634 10.7893 48.3726 11.4724 48.3725 12.1712C48.3713 13.1076 47.995 14.0054 47.326 14.6675C46.657 15.3296 45.75 15.7021 44.8039 15.7033ZM44.8039 10.0757C44.3851 10.0755 43.9757 10.1983 43.6275 10.4285C43.2792 10.6587 43.0077 10.9859 42.8474 11.3688C42.687 11.7517 42.645 12.173 42.7266 12.5796C42.8082 12.9861 43.0098 13.3596 43.3059 13.6527C43.6019 13.9459 43.9792 14.1455 44.3899 14.2264C44.8006 14.3073 45.2263 14.2659 45.6132 14.1073C46.0001 13.9487 46.3308 13.6801 46.5635 13.3355C46.7962 12.9909 46.9204 12.5857 46.9204 12.1712C46.9198 11.6157 46.6966 11.0832 46.2999 10.6903C45.9031 10.2975 45.3651 10.0764 44.8039 10.0757Z" fill="#295C7A"/>
<path d="M23.5751 32.6974H4.81375C4.69227 32.6974 4.57274 32.6671 4.4661 32.6095C4.35947 32.5519 4.26914 32.4688 4.2034 32.3677C4.13766 32.2666 4.0986 32.1507 4.0898 32.0308C4.081 31.9109 4.10274 31.7907 4.15303 31.6812L12.1266 14.3091C12.2062 14.1354 12.3523 14.0002 12.5326 13.9332C12.713 13.8661 12.9129 13.8727 13.0883 13.9515C13.2637 14.0303 13.4003 14.1749 13.4681 14.3534C13.5358 14.5319 13.5291 14.7297 13.4495 14.9034L5.9435 31.2601H22.449L14.9495 14.9034C14.9078 14.8171 14.8839 14.7235 14.8793 14.628C14.8746 14.5325 14.8892 14.437 14.9222 14.3472C14.9553 14.2574 15.0062 14.175 15.0718 14.1048C15.1374 14.0347 15.2166 13.9782 15.3045 13.9387C15.3925 13.8992 15.4876 13.8775 15.5841 13.8748C15.6807 13.8721 15.7768 13.8885 15.8669 13.9231C15.957 13.9577 16.0392 14.0097 16.1087 14.0761C16.1782 14.1424 16.2336 14.2219 16.2717 14.3098L24.2366 31.682C24.2867 31.7914 24.3083 31.9116 24.2994 32.0315C24.2905 32.1514 24.2514 32.2671 24.1855 32.3682C24.1197 32.4692 24.0294 32.5523 23.9227 32.6098C23.8161 32.6673 23.6966 32.6974 23.5751 32.6974Z" fill="#295C7A"/>
<path d="M14.2716 41.8635H14.1206C8.30775 41.8635 4.08789 37.7105 4.08789 31.9794C4.08789 31.7888 4.16439 31.606 4.30055 31.4712C4.43671 31.3365 4.62139 31.2607 4.81395 31.2607H23.579C23.7715 31.2607 23.9562 31.3365 24.0924 31.4712C24.2285 31.606 24.305 31.7888 24.305 31.9794C24.305 37.7105 20.0852 41.8635 14.2716 41.8635ZM5.56542 32.698C5.88852 37.2843 9.31552 40.4262 14.1206 40.4262H14.2716C19.0774 40.4262 22.5037 37.2843 22.8275 32.698H5.56542Z" fill="#295C7A"/>
<path d="M14.1963 15.7033C13.4903 15.7033 12.8002 15.4961 12.2132 15.1078C11.6262 14.7196 11.1687 14.1678 10.8986 13.5223C10.6285 12.8767 10.5578 12.1663 10.6956 11.481C10.8334 10.7957 11.1734 10.1662 11.6726 9.67217C12.1719 9.17813 12.8079 8.84172 13.5004 8.70549C14.1928 8.56926 14.9105 8.63932 15.5627 8.90682C16.2149 9.17432 16.7723 9.62724 17.1644 10.2083C17.5565 10.7894 17.7657 11.4725 17.7656 12.1712C17.7644 13.1077 17.388 14.0056 16.7188 14.6678C16.0497 15.3299 15.1425 15.7023 14.1963 15.7033ZM14.1963 10.0757C13.7775 10.0757 13.3682 10.1986 13.02 10.4288C12.6718 10.6591 12.4005 10.9864 12.2402 11.3693C12.08 11.7522 12.0381 12.1735 12.1198 12.58C12.2014 12.9865 12.4031 13.3599 12.6992 13.653C12.9953 13.946 13.3725 14.1456 13.7832 14.2265C14.1939 14.3073 14.6196 14.2658 15.0065 14.1072C15.3933 13.9486 15.724 13.68 15.9566 13.3354C16.1893 12.9908 16.3135 12.5857 16.3135 12.1712C16.3129 11.6156 16.0896 11.0829 15.6927 10.6901C15.2958 10.2972 14.7576 10.0762 14.1963 10.0757Z" fill="#295C7A"/>
</g>
</g>
<defs>
<filter id="filter0_d_964_13123" x="-1.5" y="0" width="61" height="61" filterUnits="userSpaceOnUse" color-interpolation-filters="sRGB">
<feFlood flood-opacity="0" result="BackgroundImageFix"/>
<feColorMatrix in="SourceAlpha" type="matrix" values="0 0 0 0 0 0 0 0 0 0 0 0 0 0 0 0 0 0 127 0" result="hardAlpha"/>
<feOffset dy="4"/>
<feGaussianBlur stdDeviation="2"/>
<feComposite in2="hardAlpha" operator="out"/>
<feColorMatrix type="matrix" values="0 0 0 0 0 0 0 0 0 0 0 0 0 0 0 0 0 0 0.25 0"/>
<feBlend mode="normal" in2="BackgroundImageFix" result="effect1_dropShadow_964_13123"/>
<feBlend mode="normal" in="SourceGraphic" in2="effect1_dropShadow_964_13123" result="shape"/>
</filter>
<clipPath id="clip0_964_13123">
<rect width="51" height="43" fill="white" transform="translate(4 5)"/>
</clipPath>
</defs>
</svg>
